<svg width="25" height="25" viewBox="0 0 25 25" fill="none" xmlns="http://www.w3.org/2000/svg">
<path d="M4.752 10.2036C4.58416 10.857 4.49949 11.529 4.5 12.2036C4.5 12.8936 4.588 13.5636 4.752 14.2036H7.6C7.46518 12.8737 7.46518 11.5335 7.6 10.2036H4.752ZM5.57 8.20361H7.916C8.182 6.98661 8.566 5.89661 9.037 4.98961C7.58518 5.68903 6.37722 6.80885 5.57 8.20361ZM20.248 10.2036H17.4C17.5348 11.5335 17.5348 12.8737 17.4 14.2036H20.248C20.5847 12.8915 20.5847 11.5157 20.248 10.2036ZM19.43 8.20361C18.6228 6.80885 17.4148 5.68903 15.963 4.98961C16.435 5.89661 16.818 6.98661 17.084 8.20361H19.43ZM9.612 10.2036C9.53708 10.8676 9.49968 11.5354 9.5 12.2036C9.5 12.8886 9.538 13.5586 9.612 14.2036H15.388C15.5386 12.8745 15.5386 11.5327 15.388 10.2036H9.612ZM9.97 8.20361H15.03C14.848 7.45191 14.5855 6.72202 14.247 6.02661C13.619 4.77161 12.947 4.20361 12.5 4.20361C12.052 4.20361 11.381 4.77161 10.753 6.02661C10.438 6.65861 10.173 7.39361 9.97 8.20361ZM5.57 16.2036C6.37722 17.5984 7.58518 18.7182 9.037 19.4176C8.565 18.5106 8.182 17.4206 7.916 16.2036H5.57ZM19.43 16.2036H17.084C16.818 17.4206 16.434 18.5106 15.963 19.4176C17.4148 18.7182 18.6228 17.5984 19.43 16.2036ZM9.97 16.2036C10.173 17.0136 10.438 17.7486 10.753 18.3806C11.381 19.6356 12.053 20.2036 12.5 20.2036C12.948 20.2036 13.619 19.6356 14.247 18.3806C14.562 17.7486 14.827 17.0136 15.03 16.2036H9.97ZM12.5 22.2036C6.977 22.2036 2.5 17.7266 2.5 12.2036C2.5 6.68061 6.977 2.20361 12.5 2.20361C18.023 2.20361 22.5 6.68061 22.5 12.2036C22.5 17.7266 18.023 22.2036 12.5 22.2036Z" fill="#E2E8F0"/>
</svg>
